<?xml version="1.0" encoding="utf-8"?>
<!-- Generator: Adobe Illustrator 28.0.0, SVG Export Plug-In . SVG Version: 6.00 Build 0)  -->
<svg version="1.1" id="Слой_1" xmlns="http://www.w3.org/2000/svg" xmlns:xlink="http://www.w3.org/1999/xlink" x="0px" y="0px"
	 viewBox="0 0 1000 337.6308594" style="enable-background:new 0 0 1000 337.6308594;" xml:space="preserve">
<style type="text/css">
	.st0{fill:#F6821F;}
	.st1{fill:#FBAD41;}
</style>
<g>
	<path class="st0" d="M847.8253174,214.3110504l2.4238892-8.523468c2.942688-10.089386,1.8461914-19.4830475-3.0587158-26.3251648
		c-4.5009155-6.3207703-12.0029297-10.0310364-21.1207886-10.4946594l-172.5438232-2.2033386
		c-1.1536255-0.0583496-2.1347046-0.5803223-2.711853-1.4505005c-0.5770874-0.8695221-0.7502441-2.029541-0.3456421-3.1311951
		c0.5764771-1.681366,2.2501831-3.0145111,3.9815063-3.072876l174.100769-2.2033234
		c20.659729-0.927887,42.9924927-17.8010406,50.8406982-38.3280334l9.9252319-26.0930252
		c0.2885742-0.695755,0.4039917-1.4492188,0.4039917-2.2033234c0-0.4059219-0.0576782-0.811821-0.1154175-1.2177277
		C878.4102783,38.0959702,833.1099243,0,779.0386353,0c-49.8583374,0-92.215332,32.3554497-107.392395,77.293663
		c-9.8104248-7.3640976-22.3327026-11.3071289-35.8361206-9.9739761
		c-23.9480591,2.3777466-43.1643066,21.7447281-45.5305176,45.808197
		c-0.6348267,6.2624207-0.1154175,12.2343674,1.3267212,17.9171143
		c-39.0671387,1.1600189-70.4019775,33.3410492-70.4019775,72.8290863c0,3.5948334,0.2885132,7.0736084,0.7501831,10.5530396
		c0.230835,1.6819763,1.6735229,2.8990784,3.3469849,2.8990784l318.4839478,0.0583344c0.0583496,0,0.0583496,0,0.1160278,0
		C845.6905518,217.3262024,847.3059082,216.1091003,847.8253174,214.3110504z"/>
	<path class="st1" d="M905.3035889,94.4085693c-1.6152954,0-3.1741943,0.0583496-4.7894897,0.116066
		c-0.2885742,0-0.5194092,0.0577087-0.7503052,0.1737747c-0.8079224,0.2898483-1.5004883,0.9856033-1.7307129,1.8557739
		l-6.8093872,23.5414963c-2.9439697,10.0893936-1.8468018,19.482399,3.0581055,26.3245163
		c4.5009155,6.3207855,12.0028687,10.0316772,21.1207886,10.4959412l36.7595215,2.2033234
		c1.0959473,0.057724,2.0199585,0.5796967,2.5963745,1.449234c0.6348877,0.870163,0.7503052,2.029541,0.4040527,3.1318512
		c-0.5771484,1.6807098-2.2507935,3.0144958-3.9815674,3.0728607l-38.2023315,2.2033386
		c-20.7167969,0.9855957-43.1072388,17.8010254-50.9554443,38.3280182l-2.7695923,7.2473755
		c-0.5194092,1.3344574,0.461731,2.7259674,1.7884521,2.7836761c0.0583496,0,0.0583496,0,0.1160889,0h131.5142212
		c1.5581665,0,2.942688-1.0439606,3.4049683-2.5508881c2.3078613-8.1765594,3.5198364-16.7577362,3.5198364-25.6871033
		C999.597168,136.8534241,957.3555908,94.4085693,905.3035889,94.4085693z"/>
</g>
<g>
	<path d="M111.2229919,254.8036957h22.3851166v61.516922h39.1958008v19.6909485h-61.5809174V254.8036957z"/>
	<path d="M196.0244751,295.6247253v-0.2388916c0-23.3300476,18.707077-42.2449951,43.6432495-42.2449951
		c24.9493713,0,43.412262,18.6767273,43.412262,42.0068054v0.2381897c0,23.3300781-18.70047,42.2450256-43.6432343,42.2450256
		S196.0244751,318.9548035,196.0244751,295.6247253z M260.2158203,295.6247253v-0.2388916
		c0-11.6947021-8.4264526-21.95755-20.779068-21.95755c-12.2338104,0-20.4293365,9.9645691-20.4293365,21.7193604v0.2381897
		c0,11.6947632,8.4330444,21.9575806,20.6603088,21.9575806
		C252.026947,317.3434143,260.2158203,307.3794861,260.2158203,295.6247253z"/>
	<path d="M310.5104675,300.388916v-45.5852203h22.7388v45.1681976c0,11.6947327,5.8793945,17.3035583,14.9062805,17.3035583
		c9.0203552,0,14.906311-5.309906,14.906311-16.7063904v-45.7059937h22.7388306v45.0487671
		c0,26.2539368-14.8996582,37.7104492-37.8826599,37.7104492
		C324.9350281,337.5028381,310.5104675,325.8081055,310.5104675,300.388916z"/>
	<path d="M420.1333008,254.8036957h31.171875c28.868927,0,45.6096497,16.7063751,45.6096497,40.1565399v0.2382202
		c0,23.4488525-16.9848633,40.8724976-46.0848083,40.8724976h-30.6967163V254.8036957z M451.6680298,316.0817566
		c13.4150391,0,22.2703552-7.3983765,22.2703552-20.5256653v-0.2382202c0-13.0071716-8.9080811-20.5256653-22.2703552-20.5256653
		h-9.1455688v41.2895508H451.6680298z"/>
	<path d="M529.4459839,254.8036957h64.7324219v19.6902618H551.901062v13.8425903h38.2389526v18.6760559H551.901062v28.9989624
		h-22.4550781V254.8036957z"/>
	<path d="M625.3635254,254.8036957h22.3825073v61.516922h39.1364136v19.6909485h-61.5189209V254.8036957z"/>
	<path d="M745.4847412,254.2104645h21.6170654l34.4381714,81.8043976h-24.0518799l-5.8794556-14.4985046h-31.171875
		l-5.7605591,14.4985046H711.105896L745.4847412,254.2104645z M765.0826416,303.9732971l-9.0269165-23.091217l-9.1456909,23.091217
		H765.0826416z"/>
	<path d="M830.3429565,254.8036957h38.2456055c12.3459473,0,20.9044189,3.2814789,26.3087158,8.8302765
		c4.7443237,4.6539917,7.1792603,10.9193726,7.1792603,18.914917v0.2388916c0,12.410675-6.592041,20.6444092-16.6218872,24.9407654
		l19.2943115,28.3424072h-25.8864136l-16.2787476-24.5831604h-9.8516846v24.5831604h-22.3891602V254.8036957z
		 M867.5129395,293.7665405c7.6016846,0,12.0028687-3.6998291,12.0028687-9.6069336v-0.2382202
		c0-6.3847961-4.638855-9.6062317-12.1150513-9.6062317h-14.6686401v19.5107727h14.7808228V293.7665405z"/>
	<path d="M934.3900146,254.8036957h65.0161133v19.1524811h-42.8118286v12.2919006h38.7734985v17.7219238h-38.7734985v12.8877258
		H1000v19.1538391h-65.6099854V254.8036957z"/>
	<path d="M62.1728096,305.1716003c-3.1475258,7.100769-9.7388916,12.171814-18.5275993,12.171814
		c-12.2318497,0-20.6642284-10.2034607-20.6642284-21.9575806v-0.2381897c0-11.6947327,8.1941528-21.7193604,20.4273624-21.7193604
		c9.2037392,0,16.2701988,5.7282715,19.2395554,13.4849548h23.6336327
		c-3.8001251-19.3326416-20.6642227-33.7723999-42.636322-33.7723999C18.7057648,253.1408386,0,272.0557861,0,295.3858337v0.2388916
		c0,23.3300781,18.4675407,42.006134,43.4083443,42.006134c21.3181343,0,38.0047264-13.9026184,42.3987541-32.5186462H62.1728096
		V305.1716003z"/>
</g>
</svg>
