<?xml version="1.0" encoding="utf-8"?>
<!-- Generator: Adobe Illustrator 28.0.0, SVG Export Plug-In . SVG Version: 6.00 Build 0)  -->
<svg version="1.1" id="Слой_1" xmlns="http://www.w3.org/2000/svg" xmlns:xlink="http://www.w3.org/1999/xlink" x="0px" y="0px"
	 viewBox="0 0 1000 228.9056244" enable-background="new 0 0 1000 228.9056244" xml:space="preserve">
<path fill="#000001" d="M99.9273758,167.3152008c-30.4628601-3.6925964-51.9253693-25.6166534-51.9253693-54.0025711
	c0-11.5388336,4.1541328-24.0009995,11.0775337-32.3090286c-3.0002785-7.615715-2.5387306-23.7702332,0.9230919-30.4628639
	c9.2311096-1.1538582,21.6932755,3.6923523,29.0782166,10.3849754c8.769577-2.7692604,18.0007019-4.1538925,29.3090057-4.1538925
	c11.3080673,0,20.5391922,1.3846321,28.8472061,3.9231224c7.1541901-6.461853,19.8471069-11.3080635,29.0782318-10.1542053
	c3.2310486,6.2310829,3.6925812,22.385601,0.6923218,30.23209c7.3849487,8.769577,11.3083038,20.5394211,11.3083038,32.5398026
	c0,28.3859177-21.4625092,49.8484268-52.3869171,53.7717819c7.8464813,5.0769958,13.15448,16.1545105,13.15448,28.8474579
	v24.0007629c0,6.9231567,5.7693024,10.8465271,12.6927032,8.0782318
	c41.7709198-15.9249725,74.5419769-57.6956482,74.5419769-109.3902435C236.318161,53.3099976,183.2386932,0,117.9280701,0
	C52.6176872,0,0,53.3099976,0,118.6206207c0,51.2330627,32.5398026,93.6967773,76.3879166,109.6193237
	c6.2310791,2.307724,12.2313919-1.8447266,12.2313919-8.0758057v-18.4629669
	c-3.2310486,1.3853607-7.3849411,2.3089142-11.0775299,2.3089142c-15.2314339,0-24.231781-8.3089752-30.6936302-23.7714233
	c-2.5384941-6.230835-5.3080025-9.9234467-10.6159935-10.6157684c-2.7692642-0.2307587-3.6923523-1.384613-3.6923523-2.7692566
	c0-2.7695007,4.6156807-4.8464355,9.2311211-4.8464355c6.6926231,0,12.4621658,4.154129,18.4624786,12.6929321
	c4.6154289,6.692627,9.4618797,9.6926575,15.2314262,9.6926575c5.7695389,0,9.4618912-2.0769501,14.7698822-7.3849487
	C94.1578369,173.0844879,97.1581116,169.6228943,99.9273758,167.3152008z"/>
<g>
	<path fill="#000001" d="M455.1222534,200.1578674V80.2582321h33.706665v119.8996353H455.1222534z M554.180603,200.1578674
		c-22.3995972,0-31.1482544-9.6005402-31.1482544-29.8681946v-61.8700333h-21.3337097V80.2582321h21.3337097V56.3635674
		l33.7091064-7.8937454v31.7884102h24.9605103v28.1614075h-24.9605103v54.4028397
		c0,6.6137848,2.9877319,9.1739807,9.5998535,9.1739807h15.3606567v28.1614075H554.180603z M789.1820679,202.2912445
		c-26.2409058,0-40.5357666-14.5072784-40.5357666-40.9621429V80.2582321h33.9237061v72.1105576
		c0,14.7206879,6.6120605,22.8278503,19.199646,22.8278503c14.507019,0,25.6019287-13.4407196,25.6019287-31.7884064V80.2582321
		h33.9212646v119.8996353H827.371582V179.890213C820.9717407,192.9040985,805.6110229,202.2912445,789.1820679,202.2912445z
		 M951.0913696,202.2912445c-16.3517456,0-31.2855835-9.387146-38.4040527-22.8278503v20.6944733h-33.7067261V32.8957329h33.9213257
		v69.3369598c6.9038696-14.5075302,22.479126-24.7480621,38.1894531-24.7480621
		c32.7180176,0,50.0005493,22.6146851,48.8551636,62.5100174
		C1001.0919189,179.4633942,983.1703491,202.2912445,951.0913696,202.2912445z M939.1428223,173.9164276
		c17.5719604,0,27.1717529-13.0139008,26.0287476-33.9217834c1.1430054-21.1210556-8.4567871-34.1352005-26.0287476-34.1352005
		c-14.0029907,0-25.09552,13.6541214-26.2409058,32.4283981v1.9202118
		C914.0473022,159.6223145,925.1398315,173.9164276,939.1428223,173.9164276z M695.7737427,32.8957329v67.8435669h-63.5768433
		V32.8957329h-36.2675781v167.2621307h36.2675781v-66.9901733h63.5768433v66.9901733h36.2699585V32.8957329H695.7737427z
		 M362.7435608,203.3590088c-49.496582,0-80.6447754-33.9227448-80.6447754-87.0456314s31.7896118-86.6178284,82.1374207-86.6178284
		c40.962616,0,65.710907,17.4940586,73.6034851,46.9356766l-36.694458,8.7471466
		c-4.4803467-16.0009079-17.2801514-24.7480507-36.9090271-24.7480507c-29.2286682,0-45.0162048,19.2010918-45.0162048,55.6830559
		c0,36.4820023,15.3607178,56.1096573,44.1625977,56.1096573c26.4555664,0,42.243042-16.2140808,42.243042-43.7357483v-6.400116
		l9.3876343,13.013916h-54.6160278v-30.7216187h81.9228516v19.4142609
		C442.3200989,174.9832306,412.6669617,203.3590088,362.7435608,203.3590088z M471.9755859,68.9508896
		c11.3071289,0,20.0556946-8.7471466,20.0556946-20.054493c0-11.3070984-8.7485657-20.0542488-20.0556946-20.0542488
		c-11.3070984,0-20.0532837,8.7471504-20.0532837,20.0542488C451.9223022,60.203743,460.6684875,68.9508896,471.9755859,68.9508896z
		"/>
</g>
</svg>
