<?xml version="1.0" encoding="utf-8"?>
<!-- Generator: Adobe Illustrator 28.0.0, SVG Export Plug-In . SVG Version: 6.00 Build 0)  -->
<svg version="1.1" id="Слой_1" xmlns="http://www.w3.org/2000/svg" xmlns:xlink="http://www.w3.org/1999/xlink" x="0px" y="0px"
	 viewBox="0 0 1000 302.6447449" style="enable-background:new 0 0 1000 302.6447449;" xml:space="preserve">
<style type="text/css">
	.st0{fill:#3186FF;}
	.st1{fill:#FC413D;}
	.st2{fill:#FFBE00;}
	.st3{fill:#00AF57;}
</style>
<g>
	<path class="st0" d="M116.1764145,234.9864655c65.4697952,0.6305695,110.0560074-43.325058,110.0560074-110.983345
		c0.0247192-5.6629257-0.5069427-11.9440689-1.5950165-18.8434372h-108.906105v32.4938049h76.4123459
		c-4.0802765,42.5460815-34.051712,64.6908264-75.1882553,64.6908264c-46.1441422,0-81.4570312-34.6822815-81.4570312-85.092186
		c0-49.7421951,33.7549629-84.4615936,81.4570312-84.4615936c24.0364914,0,41.7671127,7.4186707,59.4977646,25.5944214
		l22.7753143-23.8510361C179.2722321,11.1651039,150.4136047,0,116.5102692,0C50.8179092-0.0000088,0,49.2970734,0,116.7698975
		C0,181.3123627,49.1487083,234.3558807,116.1764145,234.9864655"/>
	<path class="st1" d="M327.1634521,234.9864655c48.9632263,0,84.4616089-35.9434662,84.4616089-85.8711548
		c0-48.9632339-34.6822815-85.2405396-84.4616089-85.2405396c-47.108551,0-84.1277466,33.4582176-84.1277466,85.2405396
		C243.0357056,198.5607758,278.0147705,234.9864655,327.1634521,234.9864655 M327.1634521,205.1633911
		c-29.8230591,0-50.706604-24.4816132-50.706604-56.0109711s21.9963684-55.4545822,50.706604-55.4545822
		c30.3052979,0,50.7066345,24.4816132,50.7066345,55.4174728
		C377.8700867,181.1639862,356.9865417,205.1633911,327.1634521,205.1633911"/>
	<path class="st2" d="M509.7369995,234.9864655c49.2970581,0,84.4616089-36.0918427,84.4616089-85.8711548
		c0-48.9632339-34.682312-85.2405396-84.4616089-85.2405396c-47.108551,0-84.1277466,33.4582176-84.1277466,85.2405396
		C425.6092529,198.5607758,460.5882874,234.9864655,509.7369995,234.9864655 M509.7369995,205.1633911
		c-29.8230286,0-50.706604-24.4816132-50.706604-56.0109711s21.9963379-55.4545822,50.706604-55.4545822
		c30.3052979,0,50.706604,24.4816132,50.706604,55.4174728
		C560.4436035,181.1639862,539.5600586,205.1633911,509.7369995,205.1633911"/>
	<path class="st0" d="M687.5996704,302.6447449c53.1919556,0,79.7754517-30.4536438,79.7507324-91.3609467V69.6984253H734.708252
		v19.9191284h-0.6306152c-10.2006226-15.8388672-29.5263062-24.7783661-51.3371582-24.7783661
		c-47.1085815,0-75.8188477,35.9434662-75.8188477,83.8309937c0,47.7020721,27.9312744,82.8665619,77.0800171,82.8665619
		c24.1848755,0,42.0638428-13.7987366,49.593811-25.1121979h1.112793v14.6147766
		c0,32.1599426-16.6549683,51.188858-47.5536499,51.188858c-20.2530518,0-33.7550049-11.1651306-43.6589355-29.8601685
		l-29.5263672,13.056839c15.5792236,32.7905426,37.6868896,47.2198639,73.6303711,47.2198639 M687.5996704,200.4524994
		c-28.7102661,0-47.1085815-21.1802979-47.1085815-52.7467651c0-30.4165573,18.249939-52.4129257,47.2940674-52.4129257
		s46.9230957,20.4013519,46.9230957,52.2645493C734.708252,179.7543945,715.8648071,200.4524994,687.5996704,200.4524994"/>
	<path class="st3" d="M826.8482056,5.0075951h-34.2000732v224.7857819h34.2000732V5.0075951z"/>
	<path class="st1" d="M927.9647217,234.6897125c28.7190552,0.2132721,55.4554443-14.6183929,70.4772949-39.0964203
		l-25.4459839-16.6549072c-11.1279907,15.5792236-26.3363037,24.4816132-43.4734497,24.4816132
		c-18.5613403-0.1175079-35.5587158-10.4185486-44.2523193-26.8184967L1000,127.9350128
		c-0.7050171-4.060997-1.7472534-8.0561905-3.1158447-11.9440689
		c-13.687439-35.1645126-37.5384521-51.1888428-69.7355347-51.1888428c-49.1116333,0-82.5327148,35.8321915-82.5327148,85.426033
		C844.6159058,200.9347534,879.7433472,234.6897125,927.9647217,234.6897125 M877.8886719,150.0797577v-1.8917542
		c0-32.4937897,18.657959-54.3046875,48.0358887-54.3046875c13.9470825,0,26.5217285,6.2687683,35.0161133,21.0319443
		L877.8886719,150.0797577z"/>
</g>
</svg>
