<?xml version="1.0" encoding="utf-8"?>
<!-- Generator: Adobe Illustrator 28.0.0, SVG Export Plug-In . SVG Version: 6.00 Build 0)  -->
<svg version="1.1" id="Слой_1" xmlns="http://www.w3.org/2000/svg" xmlns:xlink="http://www.w3.org/1999/xlink" x="0px" y="0px"
	 viewBox="0 0 1000 1000.4112549" enable-background="new 0 0 1000 1000.4112549" xml:space="preserve">
<path fill="#FFFFFF" d="M852.1171875,590.5990601v261.8776245H703.9087524l-0.0083618-236.1487427
	c-0.0856934-54.7626343-2.8256226-122.6164551-77.0669556-122.6164551c-76.2188721,0-88.7023315,58.8120728-89.00177,120.2532959
	l-0.0089111,238.5119019h-148.208374V375.0588684h142.2749634v65.2252197h1.9780273
	c19.7865601-37.5272522,68.1793823-77.109314,140.3314819-77.109314
	C824.3930664,363.1747742,852.1171875,462.0575562,852.1171875,590.5990601z M148.2684937,852.4850464h148.3197021v-477.426178
	H148.2684937V852.4850464z M222.4497833,137.7285004c-47.5190582,0-85.9969025,38.5546722-85.9969025,86.0052643
	c0,47.4934692,38.4778442,86.0570068,85.9969025,86.0570068c47.4338837,0,85.9540558-38.5635376,85.9540558-86.0570068
	C308.4038391,176.2831726,269.883667,137.7285004,222.4497833,137.7285004z"/>
<path fill="#006ABE" d="M925.9817505,0H73.8050232C33.0837288,0,0,32.2873116,0,72.1092377v856.1154175
	c0,39.8391724,33.0837288,72.1865845,73.8050232,72.1865845h852.1767578c40.7892456,0,74.0182495-32.3474121,74.0182495-72.1865845
	V72.1092377C1000,32.2873116,966.7709961,0,925.9817505,0z M222.4497833,309.7907715
	c-47.5190582,0-85.9969025-38.5635376-85.9969025-86.0570068c0-47.450592,38.4778442-86.0052643,85.9969025-86.0052643
	c47.4338837,0,85.9540558,38.5546722,85.9540558,86.0052643
	C308.4038391,271.2272339,269.883667,309.7907715,222.4497833,309.7907715z M296.5881958,375.0588684v477.426178H148.2684937
	v-477.426178H296.5881958z M852.1171875,852.4766846H703.9087524l-0.0083618-236.1487427
	c-0.0856934-54.7626343-2.8256226-122.6164551-77.0669556-122.6164551c-76.2188721,0-88.7023315,58.8120728-89.00177,120.2532959
	l-0.0089111,238.5119019h-148.208374V375.0588684h142.2749634v65.2252197h1.9780273
	c19.7865601-37.5272522,68.1793823-77.109314,140.3314819-77.109314c150.1942139,0,177.918335,98.882782,177.918335,227.4242859
	V852.4766846z"/>
</svg>
