<?xml version="1.0" encoding="utf-8"?>
<!-- Generator: Adobe Illustrator 28.0.0, SVG Export Plug-In . SVG Version: 6.00 Build 0)  -->
<svg version="1.1" id="Слой_1" xmlns="http://www.w3.org/2000/svg" xmlns:xlink="http://www.w3.org/1999/xlink" x="0px" y="0px"
	 viewBox="0 0 1000 214" style="enable-background:new 0 0 1000 214;" xml:space="preserve">
<style type="text/css">
	.st0{fill:#666666;}
	.st1{fill:#F25022;}
	.st2{fill:#7FBA00;}
	.st3{fill:#00A4EF;}
	.st4{fill:#FFB900;}
</style>
<g>
	<path class="st0" d="M1000,96.8c0-17.8,0-17.8,0-17.8c-22.2,0-22.2,0-22.2,0c0-27.4,0-27.4,0-27.4c-0.6,0-0.6,0-0.6,0
		c-20.3,6.4-20.3,6.4-20.3,6.4c-0.6,0.7-0.6,0.7-0.6,0.7c0,20.4,0,20.4,0,20.4c-32.4,0-32.4,0-32.4,0c0-11.5,0-11.5,0-11.5
		c0-5.1,1.3-9.6,3.8-12.1c1.9-3.2,5.7-4.5,9.5-4.5c3.2,0,6.3,0.6,9.5,2.6c1.3,0,1.3,0,1.3,0c0-18.5,0-18.5,0-18.5
		c-0.6,0-0.6,0-0.6,0c-3.2-1.3-7-1.9-12-1.9c-6.3,0-12,1.9-17.2,4.5c-5.1,2.5-8.9,6.4-12,11.5c-2.5,5.1-3.8,10.8-3.8,17.2
		c0,12.7,0,12.7,0,12.7c-15.2,0-15.2,0-15.2,0c0,17.8,0,17.8,0,17.8c15.2,0,15.2,0,15.2,0c0,74.6,0,74.6,0,74.6
		c21.6,0,21.6,0,21.6,0c0-74.6,0-74.6,0-74.6c32.4,0,32.4,0,32.4,0c0,47.1,0,47.1,0,47.1c0,19.7,8.9,29.3,27.3,29.3
		c3.2,0,5.7,0,8.9-0.6c3.8-1.3,5.7-1.9,7-2.6c0.6,0,0.6,0,0.6,0c0-17.8,0-17.8,0-17.8c-1.3,0.6-1.3,0.6-1.3,0.6
		c-1.3,0.7-2.5,1.3-4.4,1.9c-1.9,0.6-3.2,0.6-4.4,0.6c-3.8,0-7-1.3-8.9-3.2c-1.9-2.5-3.2-6.4-3.2-12.1c0-43.3,0-43.3,0-43.3H1000z
		 M862.3,124.8c0-9.6-1.9-17.2-6.3-22.3c-4.4-5.1-10.1-7.6-17.8-7.6c-8.2,0-13.9,2.5-18.4,7.6c-4.4,5.7-7,13.4-7,22.9
		c0,9.5,2.5,17.2,7,22.3c4.4,5,10.1,7.6,18.4,7.6c7.7,0,14-2.6,17.8-7.6C860.4,142.7,862.3,135,862.3,124.8z M872.5,89.8
		c8.2,8.3,12,19.7,12,34.4c0,14.6-3.8,26.7-12.7,35.7c-8.3,8.9-20.3,13.4-34.9,13.4c-13.9,0-25.4-4.5-33.6-12.7
		c-8.2-8.3-12.7-19.8-12.7-34.4c0-15.3,4.4-27.4,12.7-36.3c8.9-8.3,21-12.7,35.5-12.7C853.4,77.1,864.9,80.9,872.5,89.8z
		 M757.7,117.2c-7-2.5-11.5-5.1-12.7-7c-1.9-1.3-3.2-3.8-3.2-7c0-2.5,1.3-4.5,3.8-6.4c1.9-1.9,5.1-2.5,8.9-2.5
		c3.9,0,7.7,0.6,11.5,1.3c3.8,1.3,7,3.2,9.5,4.5c0.6,0.6,0.6,0.6,0.6,0.6c0-19.8,0-19.8,0-19.8c-2.6-1.3-5.7-1.9-10.1-3.2
		c-3.8-0.6-7.6-0.6-10.8-0.6c-10.1,0-18.4,2.5-24.7,7.6c-7,5.1-10.2,12.1-10.2,20.4c0,4.5,0.6,8.3,1.9,11.5c1.9,3.2,3.8,6.4,7,8.3
		c2.6,2.5,7,5.1,13.3,7.6c4.4,1.9,8.2,3.8,10.8,5.1c2.5,1.3,3.9,2.5,5.1,4.5c0.6,1.3,1.3,2.5,1.3,5.1c0,5.7-4.5,8.9-14,8.9
		c-3.8,0-7.6-0.6-12-1.9c-4.5-1.9-8.9-3.8-12.1-6.4c-1.3-0.7-1.3-0.7-1.3-0.7c0,21,0,21,0,21c0.6,0,0.6,0,0.6,0
		c2.5,1.9,7,2.5,11.5,3.8c4.4,0.6,8.9,1.3,12,1.3c11.4,0,20.3-2.6,26.6-7.6c7-5.7,10.1-12.8,10.1-21c0-6.4-1.9-11.5-5.1-15.9
		C772.2,124.2,765.9,120.4,757.7,117.2z M687.2,124.8c0-9.6-1.9-17.2-6.3-22.3c-4.4-5.1-10.2-7.6-17.8-7.6c-7.6,0-13.9,2.5-18.4,7.6
		c-4.4,5.7-7,13.4-7,22.9c0,9.5,2.5,17.2,7,22.3c4.5,5,10.8,7.6,18.4,7.6c8.2,0,14-2.6,18.4-7.6C685.3,142.7,687.2,135,687.2,124.8z
		 M698,89.8c7.7,8.3,12.1,19.7,12.1,34.4c0,14.6-4.4,26.7-13.4,35.7c-8.2,8.9-20.3,13.4-34.9,13.4c-13.9,0-25.4-4.5-33.6-12.7
		c-8.2-8.3-12.7-19.8-12.7-34.4c0-15.3,4.5-27.4,12.7-36.3c8.9-8.3,21-12.7,36.2-12.7C678.3,77.1,689.7,80.9,698,89.8z M605.3,77.7
		c-5.1,0-10.1,1.3-14,5.1c-3.8,3.2-6.3,7-8.2,12.1c-0.6,0-0.6,0-0.6,0c0-15.9,0-15.9,0-15.9c-21.6,0-21.6,0-21.6,0
		c0,92.4,0,92.4,0,92.4c21.6,0,21.6,0,21.6,0c0-47.1,0-47.1,0-47.1c0-8.3,1.9-14.7,5.7-19.8c3.2-5.1,8.3-7.6,14-7.6
		c1.9,0,3.8,0.6,6.3,1.3c2.5,0.6,3.8,1.3,5.1,1.9c0.6,0.6,0.6,0.6,0.6,0.6c0-21.7,0-21.7,0-21.7C612.3,77.7,609.1,77.7,605.3,77.7z
		 M534.2,78.3c-3.8-1.3-7.6-1.3-12-1.3c-9.5,0-18.4,1.9-26,6.4c-7.6,3.8-13.3,10.2-17.1,17.8c-3.8,7.6-5.7,16.6-5.7,26.1
		c0,8.9,1.9,16.6,5.7,23.6c3.8,7,8.9,12.7,15.9,16.6c7,3.8,14.6,5.7,23.5,5.7c10.1,0,19.1-1.9,26-5.7c0.6-0.6,0.6-0.6,0.6-0.6
		c0-19.8,0-19.8,0-19.8c-1.3,0.7-1.3,0.7-1.3,0.7c-3.2,2.5-6.3,4.4-10.2,5.7c-3.8,1.3-7.6,1.9-10.8,1.9c-8.2,0-15.2-2.6-20.3-7.6
		c-4.4-5.7-7-12.8-7-22.3c0-8.9,2.5-16.6,7.6-22.3c5.1-5.7,12.1-8.3,20.3-8.3c7,0,14,2.5,20.3,7c1.3,0.6,1.3,0.6,1.3,0.6
		c0-21,0-21,0-21c-0.6,0-0.6,0-0.6,0C541.9,80.2,538.8,79,534.2,78.3z M448,40.1c-3.8,0-7,1.3-9.5,3.8c-2.5,1.9-3.8,5.1-3.8,8.9
		c0,3.2,1.3,6.4,3.8,8.9c2.5,1.9,5.7,3.2,9.5,3.2c3.2,0,6.4-1.3,8.9-3.2c2.5-2.5,3.8-5.7,3.8-8.9c0-3.8-1.3-6.4-3.8-8.9
		C454.4,41.4,451.1,40.1,448,40.1z M436.6,171.4c21.6,0,21.6,0,21.6,0c0-92.4,0-92.4,0-92.4c-21.6,0-21.6,0-21.6,0V171.4z
		 M385.8,42.7c29.8,0,29.8,0,29.8,0c0,128.7,0,128.7,0,128.7c-21.6,0-21.6,0-21.6,0c0-81.6,0-81.6,0-81.6c0-5.7,0-14,0.6-23.6
		c-1.3,3.8-1.9,8.3-3.2,10.2c-38,94.9-38,94.9-38,94.9c-14.6,0-14.6,0-14.6,0c-38-93.7-38-93.7-38-93.7c-0.6-2.6-1.9-6.4-3.2-11.5
		c-0.6,0-0.6,0-0.6,0c0.6,2.5,0.6,5.1,0.6,8.3c0.6,7,0.6,12.7,0.6,17.8c0,79,0,79,0,79c-20.9,0-20.9,0-20.9,0
		c0-128.7,0-128.7,0-128.7c31.7,0,31.7,0,31.7,0c31.7,80.9,31.7,80.9,31.7,80.9c3.2,7,5.1,12.7,5.8,16.5c0.6,0,0.6,0,0.6,0
		c5.7-16.5,5.7-16.5,5.7-16.5L385.8,42.7z"/>
	<rect class="st1" width="101.5" height="101.9"/>
	<rect x="112.3" class="st2" width="100.9" height="101.9"/>
	<rect y="112.1" class="st3" width="101.5" height="101.9"/>
	<rect x="112.3" y="112.1" class="st4" width="100.9" height="101.9"/>
</g>
</svg>
