<?xml version="1.0" encoding="utf-8"?>
<!-- Generator: Adobe Illustrator 28.0.0, SVG Export Plug-In . SVG Version: 6.00 Build 0)  -->
<svg version="1.1" id="Слой_1" xmlns="http://www.w3.org/2000/svg" xmlns:xlink="http://www.w3.org/1999/xlink" x="0px" y="0px"
	 viewBox="0 0 1000 268.9171143" style="enable-background:new 0 0 1000 268.9171143;" xml:space="preserve">
<style type="text/css">
	.st0{fill:#000001;}
</style>
<g>
	<path class="st0" d="M106.3848572,0C47.8731842,0,0,47.8731842,0,106.3848572s47.8731842,106.3848724,106.3848572,106.3848724
		s106.3848724-47.5778809,106.3848724-106.3848724C212.7697296,47.5769691,165.1918488,0,106.3848572,0z M106.3848572,174.6481934
		c-36.347847,0-65.6045914-29.8464813-65.6045914-68.2633362s29.2567444-68.2642059,65.6045914-68.2642059
		s65.6037292,29.8473549,65.6037292,68.2642059S142.7327271,174.6481934,106.3848572,174.6481934z"/>
	<path class="st0" d="M320.3340759,59.1022949c-19.2079773,0-37.8253174,7.683548-47.5778503,20.6863556V62.057251h-38.4168854
		v206.8598633h38.4168854v-74.7647247c9.752533,12.1159515,27.7783813,18.6173401,47.5778503,18.6173401
		c41.3717957,0,73.8788147-32.5069885,73.8788147-76.8337097S361.7058716,59.1022949,320.3340759,59.1022949z
		 M313.8327026,179.3768158c-21.8676453,0-41.3718262-17.1398926-41.3718262-43.4407959
		s19.5041809-43.4407806,41.3718262-43.4407806c21.8684692,0,41.3717957,17.1398621,41.3717957,43.4407806
		S335.7011719,179.3768158,313.8327026,179.3768158z"/>
	<path class="st0" d="M484.6435852,59.1022949c-41.9624634,0-75.0600891,32.8023071-75.0600891,76.833725
		s28.9605103,76.8337097,76.242218,76.8337097c38.7121887,0,63.535553-23.3459625,71.2191467-49.6468658h-37.5299683
		c-4.7286987,10.9346924-18.0267944,18.6173553-33.9844666,18.6173553c-19.79953,0-34.8704224-13.8887329-38.4168701-33.6882324
		H558.817688v-15.0709229C558.817688,92.7905579,530.7439575,59.1022949,484.6435852,59.1022949z M447.408844,120.8651123
		c4.1380005-18.6173477,19.5041809-30.734169,38.121582-30.734169c19.799469,0,34.8703918,13.0027771,36.6440735,30.734169
		H447.408844z"/>
	<path class="st0" d="M661.0627441,59.1022949c-17.1398315,0-35.166626,7.683548-43.4407349,20.3901367V62.057251h-38.4168701
		v147.7566528h38.4168701v-79.4924469c0-23.0506516,12.4111938-38.1215363,32.5060425-38.1215363
		c18.6173706,0,28.6625366,14.1849365,28.6625366,33.9844437v83.6295395h38.4177856v-89.8356094
		C717.208374,83.3342133,694.7483521,59.1022949,661.0627441,59.1022949z"/>
	<path class="st0" d="M815.6054688,2.9602771l-83.6313477,206.859848h41.0773926l17.7277832-45.213562h95.1593018
		l17.7279053,45.213562h41.6644287L862.2955933,2.9602771H815.6054688z M804.0775146,130.3267975l34.2814331-86.5853577
		l33.979187,86.5853577H804.0775146z"/>
	<path class="st0" d="M1000,2.9602771h-39.0048828v206.859848H1000V2.9602771z"/>
</g>
</svg>
