<?xml version="1.0" encoding="utf-8"?>
<!-- Generator: Adobe Illustrator 28.0.0, SVG Export Plug-In . SVG Version: 6.00 Build 0)  -->
<svg version="1.1" id="Слой_1" xmlns="http://www.w3.org/2000/svg" xmlns:xlink="http://www.w3.org/1999/xlink" x="0px" y="0px"
	 viewBox="0 0 1000 199.8088226" style="enable-background:new 0 0 1000 199.8088226;" xml:space="preserve">
<style type="text/css">
	.st0{fill-rule:evenodd;clip-rule:evenodd;}
</style>
<path class="st0" d="M229.7801208,199.8088226L114.8900604,0L0,199.8088226H229.7801208z M345.6631165,190.7133484
	L441.678009,9.0827265h-41.5305481l-66.2327576,131.9066315L267.681427,9.0827265h-41.5305481l96.0148621,181.6306152H345.6631165z
	 M1000,9.0827265v181.6311035h-34.380249V9.0827265H1000z M808.618103,122.9208298
	c0-14.1551666,2.9543457-26.6050873,8.8629761-37.3492661c5.9086304-10.7446823,14.1473389-19.0157928,24.7111206-24.8143158
	s22.9217529-8.6982803,37.0690308-8.6982803c12.5349731,0,23.8164673,2.7291832,33.8444214,8.1865616
	s17.9962769,13.558403,23.9049072,24.3025894c5.9086304,10.7446747,8.9563599,23.8763962,9.1333008,39.3961563v7.9304504
	H844.8810425c0.7127686,11.2559052,4.0258789,20.1242676,9.9345703,26.6051025
	c6.0905151,6.3102264,14.2407227,9.4651031,24.4456177,9.4651031c6.444458,0,12.3579712-1.705246,17.7259521-5.1162262
	c5.3728027-3.4109802,9.4036865-8.0154877,12.0875854-13.8140106l35.1913452,2.5581055
	c-4.3012085,12.7905884-12.3580322,23.0235291-24.175293,30.697876
	c-11.8222046,7.6748505-25.428772,11.5120239-40.8295898,11.5120239c-14.1472778,0-26.505249-2.8992767-37.0690308-8.6977997
	s-18.8024902-14.0701141-24.7111206-24.8143158C811.5724487,149.5259094,808.618103,137.0764923,808.618103,122.9208298z
	 M910.6871338,110.130249c-1.25354-11.0858231-4.7436523-19.186348-10.4752808-24.3030777
	c-5.7316895-5.2868042-12.7119751-7.9304504-20.9506226-7.9304504c-9.4921265,0-17.1901245,2.8142242-23.0987549,8.4421692
	c-5.9135132,5.6279526-9.5806274,13.5584106-11.0159912,23.7913589H910.6871338z M750.6033325,85.8271713
	c5.7316895,4.6050034,9.3103638,11.0002899,10.7456665,19.1863556l35.4518433-1.7907791
	c-1.253479-10.4030304-4.9205322-19.4419708-11.0110474-27.116806
	c-6.0905762-7.6743469-13.9654541-13.5579147-23.6395264-17.6511917c-9.4871826-4.263855-19.9625244-6.3957825-31.4258423-6.3957825
	c-14.1473389,0-26.5004272,2.8997574-37.0690918,8.6982803c-10.5637817,5.7985229-18.8024902,14.0696335-24.7111206,24.8143158
	c-5.9086304,10.7441788-8.862915,23.1940994-8.862915,37.3492661c0,14.1556625,2.9542847,26.6050797,8.862915,37.3497543
	c5.9086304,10.7442017,14.1473389,19.0157928,24.7111206,24.8143158
	c10.5686646,5.7985229,22.9217529,8.6977997,37.0690918,8.6977997c11.8172607,0,22.5629272-2.1319427,32.2319946-6.3952942
	c9.6740723-4.434433,17.5490112-10.6591492,23.6395264-18.6751251c6.0904541-8.0155029,9.7576294-17.3955841,11.0110474-28.1397705
	l-35.7221069-1.5351562c-1.25354,9.0389404-4.7485962,16.0314636-10.4753418,20.9771271
	c-5.7316895,4.7755737-12.6283569,7.1631317-20.6851196,7.1631317c-11.0996094,0-19.6971436-3.8371735-25.7875977-11.5120087
	c-6.0856323-7.6743469-9.128418-18.5891113-9.128418-32.7447739c0-14.1551666,3.0427856-25.0699234,9.128418-32.7447662
	c6.0904541-7.6743469,14.6879883-11.5115204,25.7875977-11.5115204
	C738.4272461,78.6645432,745.0487061,81.0520935,750.6033325,85.8271713z M576.1904297,55.1229057h31.9960938l0.9241333,26.0953331
	c2.2710571-7.3862839,5.4269409-13.1223907,9.4725342-17.2082901c5.8643799-5.924366,14.0440674-8.887043,24.5292358-8.887043
	h13.0657959v27.9308434h-13.3312988c-7.4668579,0-13.5967407,1.0155792-18.399353,3.04673
	c-4.6206665,2.0311584-8.1748047,5.2474823-10.6620483,9.6489792c-2.3103638,4.4009933-3.4655762,9.987175-3.4655762,16.7580109
	v78.2058792h-34.1295166V55.1229057z M428.6096802,85.5715637c-5.9091187,10.7441788-8.8639221,23.1940994-8.8639221,37.3492661
	c0,14.1556625,2.9548035,26.6050797,8.8639221,37.3497543c5.9096375,10.7442017,14.1468201,19.0157928,24.7125549,24.8143158
	c10.5652466,5.7985229,22.9212952,8.6977997,37.0681152,8.6977997c15.3978577,0,29.0093079-3.8371735,40.8266296-11.5120239
	c11.8221436-7.6743469,19.8789673-17.9072876,24.1752319-30.697876l-35.1863403-2.5581055
	c-2.68396,5.7985229-6.7148438,10.4030304-12.0876465,13.8140106c-5.3728333,3.4109802-11.2814941,5.1162262-17.7278748,5.1162262
	c-10.2073975,0-18.3551331-3.1548767-24.4436646-9.4651031c-5.9096375-6.480835-9.22229-15.3491974-9.9385376-26.6051025
	h101.2668152v-7.9304504c-0.1818848-15.5197601-3.2247314-28.6514816-9.1333618-39.3961563
	c-5.9086304-10.7441864-13.8769531-18.8452148-23.9049072-24.3025894s-21.3094482-8.1865616-33.846344-8.1865616
	c-14.1468201,0-26.5028687,2.8997574-37.0681152,8.6982803C442.7565002,66.5557709,434.5193176,74.8268814,428.6096802,85.5715637z
	 M511.3428955,85.8271713c5.7267456,5.1167297,9.2218018,13.2172546,10.4753418,24.3030777h-65.5416565
	c1.4328918-10.2329483,5.1039124-18.1634064,11.0130615-23.7913589c5.9096069-5.6279449,13.6094971-8.4421692,23.100708-8.4421692
	C498.6260376,77.8967209,505.6112061,80.5403671,511.3428955,85.8271713z"/>
</svg>
